solid CATIA STL
  facet normal  1.000000e+000  0.000000e+000  0.000000e+000
    outer loop
      vertex -2.000000e+000 -3.000000e+001  0.000000e+000
      vertex -2.000000e+000 -3.000000e+001  2.000000e+001
      vertex -2.000000e+000 -4.328609e+001  1.020191e+001
    endloop
  endfacet
  facet normal  1.000000e+000  0.000000e+000  0.000000e+000
    outer loop
      vertex -2.000000e+000 -3.000000e+001  0.000000e+000
      vertex -2.000000e+000 -4.328609e+001  1.020191e+001
      vertex -2.000000e+000 -4.358990e+001  8.088912e+000
    endloop
  endfacet
  facet normal  1.000000e+000  0.000000e+000  0.000000e+000
    outer loop
      vertex -2.000000e+000 -3.000000e+001  0.000000e+000
      vertex -2.000000e+000 -4.358990e+001  8.088912e+000
      vertex -2.000000e+000 -4.447669e+001  6.147100e+000
    endloop
  endfacet
  facet normal  1.000000e+000  0.000000e+000  0.000000e+000
    outer loop
      vertex -2.000000e+000 -3.000000e+001  0.000000e+000
      vertex -2.000000e+000 -4.447669e+001  6.147100e+000
      vertex -2.000000e+000 -4.587464e+001  4.533784e+000
    endloop
  endfacet
  facet normal  1.000000e+000  0.000000e+000  0.000000e+000
    outer loop
      vertex -2.000000e+000 -3.000000e+001  0.000000e+000
      vertex -2.000000e+000 -4.587464e+001  4.533784e+000
      vertex -2.000000e+000 -4.767048e+001  3.379666e+000
    endloop
  endfacet
  facet normal  1.000000e+000  0.000000e+000  0.000000e+000
    outer loop
      vertex -2.000000e+000 -3.000000e+001  0.000000e+000
      vertex -2.000000e+000 -4.767048e+001  3.379666e+000
      vertex -2.000000e+000 -4.971873e+001  2.778245e+000
    endloop
  endfacet
  facet normal  1.000000e+000  0.000000e+000  0.000000e+000
    outer loop
      vertex -2.000000e+000 -3.000000e+001  0.000000e+000
      vertex -2.000000e+000 -4.971873e+001  2.778245e+000
      vertex -2.000000e+000 -5.185345e+001  2.778245e+000
    endloop
  endfacet
  facet normal  1.000000e+000  0.000000e+000  0.000000e+000
    outer loop
      vertex -2.000000e+000 -3.000000e+001  0.000000e+000
      vertex -2.000000e+000 -5.185345e+001  2.778245e+000
      vertex -2.000000e+000 -7.200000e+001  0.000000e+000
    endloop
  endfacet
  facet normal  1.000000e+000  0.000000e+000  0.000000e+000
    outer loop
      vertex -2.000000e+000 -7.200000e+001  0.000000e+000
      vertex -2.000000e+000 -5.185345e+001  2.778245e+000
      vertex -2.000000e+000 -5.390171e+001  3.379666e+000
    endloop
  endfacet
  facet normal  1.000000e+000  0.000000e+000  0.000000e+000
    outer loop
      vertex -2.000000e+000 -7.200000e+001  0.000000e+000
      vertex -2.000000e+000 -5.390171e+001  3.379666e+000
      vertex -2.000000e+000 -5.569755e+001  4.533784e+000
    endloop
  endfacet
  facet normal  1.000000e+000  0.000000e+000  0.000000e+000
    outer loop
      vertex -2.000000e+000 -7.200000e+001  0.000000e+000
      vertex -2.000000e+000 -5.569755e+001  4.533784e+000
      vertex -2.000000e+000 -5.709550e+001  6.147100e+000
    endloop
  endfacet
  facet normal  1.000000e+000  0.000000e+000  0.000000e+000
    outer loop
      vertex -2.000000e+000 -7.200000e+001  0.000000e+000
      vertex -2.000000e+000 -5.709550e+001  6.147100e+000
      vertex -2.000000e+000 -5.798229e+001  8.088912e+000
    endloop
  endfacet
  facet normal  1.000000e+000  0.000000e+000  0.000000e+000
    outer loop
      vertex -2.000000e+000 -7.200000e+001  0.000000e+000
      vertex -2.000000e+000 -5.798229e+001  8.088912e+000
      vertex -2.000000e+000 -5.828609e+001  1.020191e+001
    endloop
  endfacet
  facet normal  1.000000e+000  0.000000e+000  0.000000e+000
    outer loop
      vertex -2.000000e+000 -7.200000e+001  0.000000e+000
      vertex -2.000000e+000 -5.828609e+001  1.020191e+001
      vertex -2.000000e+000 -7.200000e+001  2.000000e+001
    endloop
  endfacet
  facet normal  1.000000e+000  -0.000000e+000  0.000000e+000
    outer loop
      vertex -2.000000e+000 -3.000000e+001  2.000000e+001
      vertex -2.000000e+000 -7.200000e+001  2.000000e+001
      vertex -2.000000e+000 -5.185345e+001  1.762557e+001
    endloop
  endfacet
  facet normal  1.000000e+000  0.000000e+000  0.000000e+000
    outer loop
      vertex -2.000000e+000 -3.000000e+001  2.000000e+001
      vertex -2.000000e+000 -5.185345e+001  1.762557e+001
      vertex -2.000000e+000 -4.971873e+001  1.762557e+001
    endloop
  endfacet
  facet normal  1.000000e+000  -0.000000e+000  0.000000e+000
    outer loop
      vertex -2.000000e+000 -3.000000e+001  2.000000e+001
      vertex -2.000000e+000 -4.971873e+001  1.762557e+001
      vertex -2.000000e+000 -4.767048e+001  1.702415e+001
    endloop
  endfacet
  facet normal  9.999999e-001  -0.000000e+000  0.000000e+000
    outer loop
      vertex -2.000000e+000 -3.000000e+001  2.000000e+001
      vertex -2.000000e+000 -4.767048e+001  1.702415e+001
      vertex -2.000000e+000 -4.587464e+001  1.587003e+001
    endloop
  endfacet
  facet normal  1.000000e+000  -0.000000e+000  0.000000e+000
    outer loop
      vertex -2.000000e+000 -3.000000e+001  2.000000e+001
      vertex -2.000000e+000 -4.587464e+001  1.587003e+001
      vertex -2.000000e+000 -4.447669e+001  1.425671e+001
    endloop
  endfacet
  facet normal  1.000000e+000  -0.000000e+000  0.000000e+000
    outer loop
      vertex -2.000000e+000 -3.000000e+001  2.000000e+001
      vertex -2.000000e+000 -4.447669e+001  1.425671e+001
      vertex -2.000000e+000 -4.358990e+001  1.231490e+001
    endloop
  endfacet
  facet normal  1.000000e+000  -0.000000e+000  0.000000e+000
    outer loop
      vertex -2.000000e+000 -3.000000e+001  2.000000e+001
      vertex -2.000000e+000 -4.358990e+001  1.231490e+001
      vertex -2.000000e+000 -4.328609e+001  1.020191e+001
    endloop
  endfacet
  facet normal  9.999999e-001  0.000000e+000  -0.000000e+000
    outer loop
      vertex -2.000000e+000 -7.200000e+001  2.000000e+001
      vertex -2.000000e+000 -5.828609e+001  1.020191e+001
      vertex -2.000000e+000 -5.798229e+001  1.231490e+001
    endloop
  endfacet
  facet normal  1.000000e+000  0.000000e+000  -0.000000e+000
    outer loop
      vertex -2.000000e+000 -7.200000e+001  2.000000e+001
      vertex -2.000000e+000 -5.798229e+001  1.231490e+001
      vertex -2.000000e+000 -5.709550e+001  1.425671e+001
    endloop
  endfacet
  facet normal  1.000000e+000  0.000000e+000  -0.000000e+000
    outer loop
      vertex -2.000000e+000 -7.200000e+001  2.000000e+001
      vertex -2.000000e+000 -5.709550e+001  1.425671e+001
      vertex -2.000000e+000 -5.569755e+001  1.587003e+001
    endloop
  endfacet
  facet normal  1.000000e+000  0.000000e+000  -0.000000e+000
    outer loop
      vertex -2.000000e+000 -7.200000e+001  2.000000e+001
      vertex -2.000000e+000 -5.569755e+001  1.587003e+001
      vertex -2.000000e+000 -5.390171e+001  1.702415e+001
    endloop
  endfacet
  facet normal  1.000000e+000  0.000000e+000  -0.000000e+000
    outer loop
      vertex -2.000000e+000 -7.200000e+001  2.000000e+001
      vertex -2.000000e+000 -5.390171e+001  1.702415e+001
      vertex -2.000000e+000 -5.185345e+001  1.762557e+001
    endloop
  endfacet
  facet normal -1.000000e+000  0.000000e+000  0.000000e+000
    outer loop
      vertex  2.000000e+000 -3.000000e+001  2.000000e+001
      vertex  2.000000e+000 -3.000000e+001  0.000000e+000
      vertex  2.000000e+000 -4.587464e+001  1.587003e+001
    endloop
  endfacet
  facet normal -9.999999e-001  0.000000e+000  0.000000e+000
    outer loop
      vertex  2.000000e+000 -3.000000e+001  2.000000e+001
      vertex  2.000000e+000 -4.587464e+001  1.587003e+001
      vertex  2.000000e+000 -4.767048e+001  1.702415e+001
    endloop
  endfacet
  facet normal -1.000000e+000  0.000000e+000  0.000000e+000
    outer loop
      vertex  2.000000e+000 -3.000000e+001  2.000000e+001
      vertex  2.000000e+000 -4.767048e+001  1.702415e+001
      vertex  2.000000e+000 -4.971873e+001  1.762557e+001
    endloop
  endfacet
  facet normal -1.000000e+000  0.000000e+000  0.000000e+000
    outer loop
      vertex  2.000000e+000 -3.000000e+001  2.000000e+001
      vertex  2.000000e+000 -4.971873e+001  1.762557e+001
      vertex  2.000000e+000 -5.185345e+001  1.762557e+001
    endloop
  endfacet
  facet normal -1.000000e+000  0.000000e+000  0.000000e+000
    outer loop
      vertex  2.000000e+000 -3.000000e+001  2.000000e+001
      vertex  2.000000e+000 -5.185345e+001  1.762557e+001
      vertex  2.000000e+000 -7.200000e+001  2.000000e+001
    endloop
  endfacet
  facet normal -1.000000e+000  0.000000e+000  0.000000e+000
    outer loop
      vertex  2.000000e+000 -3.000000e+001  0.000000e+000
      vertex  2.000000e+000 -7.200000e+001  0.000000e+000
      vertex  2.000000e+000 -5.185345e+001  2.778245e+000
    endloop
  endfacet
  facet normal -1.000000e+000  0.000000e+000  0.000000e+000
    outer loop
      vertex  2.000000e+000 -3.000000e+001  0.000000e+000
      vertex  2.000000e+000 -5.185345e+001  2.778245e+000
      vertex  2.000000e+000 -4.971873e+001  2.778245e+000
    endloop
  endfacet
  facet normal -1.000000e+000  0.000000e+000  0.000000e+000
    outer loop
      vertex  2.000000e+000 -3.000000e+001  0.000000e+000
      vertex  2.000000e+000 -4.971873e+001  2.778245e+000
      vertex  2.000000e+000 -4.767048e+001  3.379666e+000
    endloop
  endfacet
  facet normal -1.000000e+000  0.000000e+000  0.000000e+000
    outer loop
      vertex  2.000000e+000 -3.000000e+001  0.000000e+000
      vertex  2.000000e+000 -4.767048e+001  3.379666e+000
      vertex  2.000000e+000 -4.587464e+001  4.533784e+000
    endloop
  endfacet
  facet normal -1.000000e+000  0.000000e+000  0.000000e+000
    outer loop
      vertex  2.000000e+000 -3.000000e+001  0.000000e+000
      vertex  2.000000e+000 -4.587464e+001  4.533784e+000
      vertex  2.000000e+000 -4.447669e+001  6.147100e+000
    endloop
  endfacet
  facet normal -1.000000e+000  0.000000e+000  0.000000e+000
    outer loop
      vertex  2.000000e+000 -3.000000e+001  0.000000e+000
      vertex  2.000000e+000 -4.447669e+001  6.147100e+000
      vertex  2.000000e+000 -4.358990e+001  8.088912e+000
    endloop
  endfacet
  facet normal -1.000000e+000  0.000000e+000  0.000000e+000
    outer loop
      vertex  2.000000e+000 -3.000000e+001  0.000000e+000
      vertex  2.000000e+000 -4.358990e+001  8.088912e+000
      vertex  2.000000e+000 -4.328609e+001  1.020191e+001
    endloop
  endfacet
  facet normal -9.999999e-001  0.000000e+000  0.000000e+000
    outer loop
      vertex  2.000000e+000 -3.000000e+001  0.000000e+000
      vertex  2.000000e+000 -4.328609e+001  1.020191e+001
      vertex  2.000000e+000 -4.358990e+001  1.231490e+001
    endloop
  endfacet
  facet normal -9.999999e-001  0.000000e+000  0.000000e+000
    outer loop
      vertex  2.000000e+000 -3.000000e+001  0.000000e+000
      vertex  2.000000e+000 -4.358990e+001  1.231490e+001
      vertex  2.000000e+000 -4.447669e+001  1.425671e+001
    endloop
  endfacet
  facet normal -1.000000e+000  0.000000e+000  0.000000e+000
    outer loop
      vertex  2.000000e+000 -3.000000e+001  0.000000e+000
      vertex  2.000000e+000 -4.447669e+001  1.425671e+001
      vertex  2.000000e+000 -4.587464e+001  1.587003e+001
    endloop
  endfacet
  facet normal -1.000000e+000  0.000000e+000  0.000000e+000
    outer loop
      vertex  2.000000e+000 -7.200000e+001  0.000000e+000
      vertex  2.000000e+000 -7.200000e+001  2.000000e+001
      vertex  2.000000e+000 -5.828609e+001  1.020191e+001
    endloop
  endfacet
  facet normal -1.000000e+000  0.000000e+000  -0.000000e+000
    outer loop
      vertex  2.000000e+000 -7.200000e+001  0.000000e+000
      vertex  2.000000e+000 -5.828609e+001  1.020191e+001
      vertex  2.000000e+000 -5.798229e+001  8.088912e+000
    endloop
  endfacet
  facet normal -1.000000e+000  0.000000e+000  -0.000000e+000
    outer loop
      vertex  2.000000e+000 -7.200000e+001  0.000000e+000
      vertex  2.000000e+000 -5.798229e+001  8.088912e+000
      vertex  2.000000e+000 -5.709550e+001  6.147100e+000
    endloop
  endfacet
  facet normal -1.000000e+000  0.000000e+000  -0.000000e+000
    outer loop
      vertex  2.000000e+000 -7.200000e+001  0.000000e+000
      vertex  2.000000e+000 -5.709550e+001  6.147100e+000
      vertex  2.000000e+000 -5.569755e+001  4.533784e+000
    endloop
  endfacet
  facet normal -1.000000e+000  0.000000e+000  -0.000000e+000
    outer loop
      vertex  2.000000e+000 -7.200000e+001  0.000000e+000
      vertex  2.000000e+000 -5.569755e+001  4.533784e+000
      vertex  2.000000e+000 -5.390171e+001  3.379666e+000
    endloop
  endfacet
  facet normal -1.000000e+000  0.000000e+000  -0.000000e+000
    outer loop
      vertex  2.000000e+000 -7.200000e+001  0.000000e+000
      vertex  2.000000e+000 -5.390171e+001  3.379666e+000
      vertex  2.000000e+000 -5.185345e+001  2.778245e+000
    endloop
  endfacet
  facet normal -1.000000e+000  -0.000000e+000  0.000000e+000
    outer loop
      vertex  2.000000e+000 -7.200000e+001  2.000000e+001
      vertex  2.000000e+000 -5.185345e+001  1.762557e+001
      vertex  2.000000e+000 -5.390171e+001  1.702415e+001
    endloop
  endfacet
  facet normal -1.000000e+000  -0.000000e+000  0.000000e+000
    outer loop
      vertex  2.000000e+000 -7.200000e+001  2.000000e+001
      vertex  2.000000e+000 -5.390171e+001  1.702415e+001
      vertex  2.000000e+000 -5.569755e+001  1.587003e+001
    endloop
  endfacet
  facet normal -1.000000e+000  -0.000000e+000  0.000000e+000
    outer loop
      vertex  2.000000e+000 -7.200000e+001  2.000000e+001
      vertex  2.000000e+000 -5.569755e+001  1.587003e+001
      vertex  2.000000e+000 -5.709550e+001  1.425671e+001
    endloop
  endfacet
  facet normal -1.000000e+000  -0.000000e+000  0.000000e+000
    outer loop
      vertex  2.000000e+000 -7.200000e+001  2.000000e+001
      vertex  2.000000e+000 -5.709550e+001  1.425671e+001
      vertex  2.000000e+000 -5.798229e+001  1.231490e+001
    endloop
  endfacet
  facet normal -1.000000e+000  -0.000000e+000  0.000000e+000
    outer loop
      vertex  2.000000e+000 -7.200000e+001  2.000000e+001
      vertex  2.000000e+000 -5.798229e+001  1.231490e+001
      vertex  2.000000e+000 -5.828609e+001  1.020191e+001
    endloop
  endfacet
  facet normal  1.000000e+000  -0.000000e+000  0.000000e+000
    outer loop
      vertex  4.000000e+000 -3.200000e+001  2.000000e+001
      vertex  4.000000e+000 -7.200000e+001  2.000000e+001
      vertex  4.000000e+000 -4.971873e+001  1.762557e+001
    endloop
  endfacet
  facet normal  1.000000e+000  -0.000000e+000  0.000000e+000
    outer loop
      vertex  4.000000e+000 -3.200000e+001  2.000000e+001
      vertex  4.000000e+000 -4.971873e+001  1.762557e+001
      vertex  4.000000e+000 -4.767048e+001  1.702415e+001
    endloop
  endfacet
  facet normal  9.999999e-001  -0.000000e+000  0.000000e+000
    outer loop
      vertex  4.000000e+000 -3.200000e+001  2.000000e+001
      vertex  4.000000e+000 -4.767048e+001  1.702415e+001
      vertex  4.000000e+000 -4.587464e+001  1.587003e+001
    endloop
  endfacet
  facet normal  1.000000e+000  -0.000000e+000  0.000000e+000
    outer loop
      vertex  4.000000e+000 -3.200000e+001  2.000000e+001
      vertex  4.000000e+000 -4.587464e+001  1.587003e+001
      vertex  4.000000e+000 -4.447669e+001  1.425671e+001
    endloop
  endfacet
  facet normal  1.000000e+000  -0.000000e+000  0.000000e+000
    outer loop
      vertex  4.000000e+000 -3.200000e+001  2.000000e+001
      vertex  4.000000e+000 -4.447669e+001  1.425671e+001
      vertex  4.000000e+000 -4.358990e+001  1.231490e+001
    endloop
  endfacet
  facet normal  1.000000e+000  -0.000000e+000  0.000000e+000
    outer loop
      vertex  4.000000e+000 -3.200000e+001  2.000000e+001
      vertex  4.000000e+000 -4.358990e+001  1.231490e+001
      vertex  4.000000e+000 -3.200000e+001  0.000000e+000
    endloop
  endfacet
  facet normal  1.000000e+000  0.000000e+000  0.000000e+000
    outer loop
      vertex  4.000000e+000 -7.200000e+001  0.000000e+000
      vertex  4.000000e+000 -4.971873e+001  2.778245e+000
      vertex  4.000000e+000 -5.185345e+001  2.778245e+000
    endloop
  endfacet
  facet normal  1.000000e+000  0.000000e+000  0.000000e+000
    outer loop
      vertex  4.000000e+000 -7.200000e+001  0.000000e+000
      vertex  4.000000e+000 -5.185345e+001  2.778245e+000
      vertex  4.000000e+000 -5.390171e+001  3.379666e+000
    endloop
  endfacet
  facet normal  1.000000e+000  0.000000e+000  0.000000e+000
    outer loop
      vertex  4.000000e+000 -7.200000e+001  0.000000e+000
      vertex  4.000000e+000 -5.390171e+001  3.379666e+000
      vertex  4.000000e+000 -5.569755e+001  4.533784e+000
    endloop
  endfacet
  facet normal  1.000000e+000  0.000000e+000  0.000000e+000
    outer loop
      vertex  4.000000e+000 -7.200000e+001  0.000000e+000
      vertex  4.000000e+000 -5.569755e+001  4.533784e+000
      vertex  4.000000e+000 -5.709550e+001  6.147100e+000
    endloop
  endfacet
  facet normal  1.000000e+000  0.000000e+000  0.000000e+000
    outer loop
      vertex  4.000000e+000 -7.200000e+001  0.000000e+000
      vertex  4.000000e+000 -5.709550e+001  6.147100e+000
      vertex  4.000000e+000 -5.798229e+001  8.088912e+000
    endloop
  endfacet
  facet normal  1.000000e+000  0.000000e+000  0.000000e+000
    outer loop
      vertex  4.000000e+000 -7.200000e+001  0.000000e+000
      vertex  4.000000e+000 -5.798229e+001  8.088912e+000
      vertex  4.000000e+000 -5.828609e+001  1.020191e+001
    endloop
  endfacet
  facet normal  1.000000e+000  0.000000e+000  0.000000e+000
    outer loop
      vertex  4.000000e+000 -7.200000e+001  0.000000e+000
      vertex  4.000000e+000 -5.828609e+001  1.020191e+001
      vertex  4.000000e+000 -7.200000e+001  2.000000e+001
    endloop
  endfacet
  facet normal  1.000000e+000  0.000000e+000  0.000000e+000
    outer loop
      vertex  4.000000e+000 -3.200000e+001  0.000000e+000
      vertex  4.000000e+000 -4.358990e+001  1.231490e+001
      vertex  4.000000e+000 -4.328609e+001  1.020191e+001
    endloop
  endfacet
  facet normal  1.000000e+000  0.000000e+000  0.000000e+000
    outer loop
      vertex  4.000000e+000 -3.200000e+001  0.000000e+000
      vertex  4.000000e+000 -4.328609e+001  1.020191e+001
      vertex  4.000000e+000 -4.358990e+001  8.088912e+000
    endloop
  endfacet
  facet normal  1.000000e+000  0.000000e+000  0.000000e+000
    outer loop
      vertex  4.000000e+000 -3.200000e+001  0.000000e+000
      vertex  4.000000e+000 -4.358990e+001  8.088912e+000
      vertex  4.000000e+000 -4.447669e+001  6.147100e+000
    endloop
  endfacet
  facet normal  1.000000e+000  0.000000e+000  0.000000e+000
    outer loop
      vertex  4.000000e+000 -3.200000e+001  0.000000e+000
      vertex  4.000000e+000 -4.447669e+001  6.147100e+000
      vertex  4.000000e+000 -4.587464e+001  4.533784e+000
    endloop
  endfacet
  facet normal  9.999999e-001  0.000000e+000  0.000000e+000
    outer loop
      vertex  4.000000e+000 -3.200000e+001  0.000000e+000
      vertex  4.000000e+000 -4.587464e+001  4.533784e+000
      vertex  4.000000e+000 -4.767048e+001  3.379666e+000
    endloop
  endfacet
  facet normal  1.000000e+000  0.000000e+000  0.000000e+000
    outer loop
      vertex  4.000000e+000 -3.200000e+001  0.000000e+000
      vertex  4.000000e+000 -4.767048e+001  3.379666e+000
      vertex  4.000000e+000 -4.971873e+001  2.778245e+000
    endloop
  endfacet
  facet normal  1.000000e+000  0.000000e+000  0.000000e+000
    outer loop
      vertex  4.000000e+000 -3.200000e+001  0.000000e+000
      vertex  4.000000e+000 -4.971873e+001  2.778245e+000
      vertex  4.000000e+000 -7.200000e+001  0.000000e+000
    endloop
  endfacet
  facet normal  9.999999e-001  0.000000e+000  -0.000000e+000
    outer loop
      vertex  4.000000e+000 -7.200000e+001  2.000000e+001
      vertex  4.000000e+000 -5.828609e+001  1.020191e+001
      vertex  4.000000e+000 -5.798229e+001  1.231490e+001
    endloop
  endfacet
  facet normal  1.000000e+000  0.000000e+000  -0.000000e+000
    outer loop
      vertex  4.000000e+000 -7.200000e+001  2.000000e+001
      vertex  4.000000e+000 -5.798229e+001  1.231490e+001
      vertex  4.000000e+000 -5.709550e+001  1.425671e+001
    endloop
  endfacet
  facet normal  1.000000e+000  0.000000e+000  -0.000000e+000
    outer loop
      vertex  4.000000e+000 -7.200000e+001  2.000000e+001
      vertex  4.000000e+000 -5.709550e+001  1.425671e+001
      vertex  4.000000e+000 -5.569755e+001  1.587003e+001
    endloop
  endfacet
  facet normal  1.000000e+000  0.000000e+000  -0.000000e+000
    outer loop
      vertex  4.000000e+000 -7.200000e+001  2.000000e+001
      vertex  4.000000e+000 -5.569755e+001  1.587003e+001
      vertex  4.000000e+000 -5.390171e+001  1.702415e+001
    endloop
  endfacet
  facet normal  1.000000e+000  0.000000e+000  -0.000000e+000
    outer loop
      vertex  4.000000e+000 -7.200000e+001  2.000000e+001
      vertex  4.000000e+000 -5.390171e+001  1.702415e+001
      vertex  4.000000e+000 -5.185345e+001  1.762557e+001
    endloop
  endfacet
  facet normal  1.000000e+000  0.000000e+000  -0.000000e+000
    outer loop
      vertex  4.000000e+000 -7.200000e+001  2.000000e+001
      vertex  4.000000e+000 -5.185345e+001  1.762557e+001
      vertex  4.000000e+000 -4.971873e+001  1.762557e+001
    endloop
  endfacet
  facet normal -1.000000e+000  0.000000e+000  0.000000e+000
    outer loop
      vertex -4.000000e+000 -3.200000e+001  2.000000e+001
      vertex -4.000000e+000 -3.200000e+001  0.000000e+000
      vertex -4.000000e+000 -4.358990e+001  1.231490e+001
    endloop
  endfacet
  facet normal -1.000000e+000  0.000000e+000  0.000000e+000
    outer loop
      vertex -4.000000e+000 -3.200000e+001  2.000000e+001
      vertex -4.000000e+000 -4.358990e+001  1.231490e+001
      vertex -4.000000e+000 -4.447669e+001  1.425671e+001
    endloop
  endfacet
  facet normal -1.000000e+000  0.000000e+000  0.000000e+000
    outer loop
      vertex -4.000000e+000 -3.200000e+001  2.000000e+001
      vertex -4.000000e+000 -4.447669e+001  1.425671e+001
      vertex -4.000000e+000 -4.587464e+001  1.587003e+001
    endloop
  endfacet
  facet normal -9.999999e-001  0.000000e+000  0.000000e+000
    outer loop
      vertex -4.000000e+000 -3.200000e+001  2.000000e+001
      vertex -4.000000e+000 -4.587464e+001  1.587003e+001
      vertex -4.000000e+000 -4.767048e+001  1.702415e+001
    endloop
  endfacet
  facet normal -1.000000e+000  0.000000e+000  0.000000e+000
    outer loop
      vertex -4.000000e+000 -3.200000e+001  2.000000e+001
      vertex -4.000000e+000 -4.767048e+001  1.702415e+001
      vertex -4.000000e+000 -4.971873e+001  1.762557e+001
    endloop
  endfacet
  facet normal -1.000000e+000  0.000000e+000  0.000000e+000
    outer loop
      vertex -4.000000e+000 -3.200000e+001  2.000000e+001
      vertex -4.000000e+000 -4.971873e+001  1.762557e+001
      vertex -4.000000e+000 -7.200000e+001  2.000000e+001
    endloop
  endfacet
  facet normal -1.000000e+000  0.000000e+000  0.000000e+000
    outer loop
      vertex -4.000000e+000 -7.200000e+001  0.000000e+000
      vertex -4.000000e+000 -7.200000e+001  2.000000e+001
      vertex -4.000000e+000 -5.828609e+001  1.020191e+001
    endloop
  endfacet
  facet normal -1.000000e+000  0.000000e+000  -0.000000e+000
    outer loop
      vertex -4.000000e+000 -7.200000e+001  0.000000e+000
      vertex -4.000000e+000 -5.828609e+001  1.020191e+001
      vertex -4.000000e+000 -5.798229e+001  8.088912e+000
    endloop
  endfacet
  facet normal -1.000000e+000  0.000000e+000  -0.000000e+000
    outer loop
      vertex -4.000000e+000 -7.200000e+001  0.000000e+000
      vertex -4.000000e+000 -5.798229e+001  8.088912e+000
      vertex -4.000000e+000 -5.709550e+001  6.147100e+000
    endloop
  endfacet
  facet normal -1.000000e+000  0.000000e+000  -0.000000e+000
    outer loop
      vertex -4.000000e+000 -7.200000e+001  0.000000e+000
      vertex -4.000000e+000 -5.709550e+001  6.147100e+000
      vertex -4.000000e+000 -5.569755e+001  4.533784e+000
    endloop
  endfacet
  facet normal -1.000000e+000  0.000000e+000  -0.000000e+000
    outer loop
      vertex -4.000000e+000 -7.200000e+001  0.000000e+000
      vertex -4.000000e+000 -5.569755e+001  4.533784e+000
      vertex -4.000000e+000 -5.390171e+001  3.379666e+000
    endloop
  endfacet
  facet normal -1.000000e+000  0.000000e+000  -0.000000e+000
    outer loop
      vertex -4.000000e+000 -7.200000e+001  0.000000e+000
      vertex -4.000000e+000 -5.390171e+001  3.379666e+000
      vertex -4.000000e+000 -5.185345e+001  2.778245e+000
    endloop
  endfacet
  facet normal -1.000000e+000  0.000000e+000  -0.000000e+000
    outer loop
      vertex -4.000000e+000 -7.200000e+001  0.000000e+000
      vertex -4.000000e+000 -5.185345e+001  2.778245e+000
      vertex -4.000000e+000 -4.971873e+001  2.778245e+000
    endloop
  endfacet
  facet normal -1.000000e+000  0.000000e+000  0.000000e+000
    outer loop
      vertex -4.000000e+000 -3.200000e+001  0.000000e+000
      vertex -4.000000e+000 -7.200000e+001  0.000000e+000
      vertex -4.000000e+000 -4.971873e+001  2.778245e+000
    endloop
  endfacet
  facet normal -1.000000e+000  0.000000e+000  0.000000e+000
    outer loop
      vertex -4.000000e+000 -3.200000e+001  0.000000e+000
      vertex -4.000000e+000 -4.971873e+001  2.778245e+000
      vertex -4.000000e+000 -4.767048e+001  3.379666e+000
    endloop
  endfacet
  facet normal -1.000000e+000  0.000000e+000  0.000000e+000
    outer loop
      vertex -4.000000e+000 -3.200000e+001  0.000000e+000
      vertex -4.000000e+000 -4.767048e+001  3.379666e+000
      vertex -4.000000e+000 -4.587464e+001  4.533784e+000
    endloop
  endfacet
  facet normal -1.000000e+000  0.000000e+000  0.000000e+000
    outer loop
      vertex -4.000000e+000 -3.200000e+001  0.000000e+000
      vertex -4.000000e+000 -4.587464e+001  4.533784e+000
      vertex -4.000000e+000 -4.447669e+001  6.147100e+000
    endloop
  endfacet
  facet normal -1.000000e+000  0.000000e+000  0.000000e+000
    outer loop
      vertex -4.000000e+000 -3.200000e+001  0.000000e+000
      vertex -4.000000e+000 -4.447669e+001  6.147100e+000
      vertex -4.000000e+000 -4.358990e+001  8.088912e+000
    endloop
  endfacet
  facet normal -1.000000e+000  0.000000e+000  0.000000e+000
    outer loop
      vertex -4.000000e+000 -3.200000e+001  0.000000e+000
      vertex -4.000000e+000 -4.358990e+001  8.088912e+000
      vertex -4.000000e+000 -4.328609e+001  1.020191e+001
    endloop
  endfacet
  facet normal -1.000000e+000  0.000000e+000  0.000000e+000
    outer loop
      vertex -4.000000e+000 -3.200000e+001  0.000000e+000
      vertex -4.000000e+000 -4.328609e+001  1.020191e+001
      vertex -4.000000e+000 -4.358990e+001  1.231490e+001
    endloop
  endfacet
  facet normal -1.000000e+000  0.000000e+000  0.000000e+000
    outer loop
      vertex -4.000000e+000 -7.200000e+001  2.000000e+001
      vertex -4.000000e+000 -4.971873e+001  1.762557e+001
      vertex -4.000000e+000 -5.185345e+001  1.762557e+001
    endloop
  endfacet
  facet normal -1.000000e+000  -0.000000e+000  0.000000e+000
    outer loop
      vertex -4.000000e+000 -7.200000e+001  2.000000e+001
      vertex -4.000000e+000 -5.185345e+001  1.762557e+001
      vertex -4.000000e+000 -5.390171e+001  1.702415e+001
    endloop
  endfacet
  facet normal -1.000000e+000  -0.000000e+000  0.000000e+000
    outer loop
      vertex -4.000000e+000 -7.200000e+001  2.000000e+001
      vertex -4.000000e+000 -5.390171e+001  1.702415e+001
      vertex -4.000000e+000 -5.569755e+001  1.587003e+001
    endloop
  endfacet
  facet normal -1.000000e+000  -0.000000e+000  0.000000e+000
    outer loop
      vertex -4.000000e+000 -7.200000e+001  2.000000e+001
      vertex -4.000000e+000 -5.569755e+001  1.587003e+001
      vertex -4.000000e+000 -5.709550e+001  1.425671e+001
    endloop
  endfacet
  facet normal -1.000000e+000  -0.000000e+000  0.000000e+000
    outer loop
      vertex -4.000000e+000 -7.200000e+001  2.000000e+001
      vertex -4.000000e+000 -5.709550e+001  1.425671e+001
      vertex -4.000000e+000 -5.798229e+001  1.231490e+001
    endloop
  endfacet
  facet normal -1.000000e+000  -0.000000e+000  0.000000e+000
    outer loop
      vertex -4.000000e+000 -7.200000e+001  2.000000e+001
      vertex -4.000000e+000 -5.798229e+001  1.231490e+001
      vertex -4.000000e+000 -5.828609e+001  1.020191e+001
    endloop
  endfacet
  facet normal  0.000000e+000  2.817327e-001 -9.594930e-001
    outer loop
      vertex  2.000000e+000 -5.185345e+001  1.762557e+001
      vertex  4.000000e+000 -5.390171e+001  1.702415e+001
      vertex  2.000000e+000 -5.390171e+001  1.702415e+001
    endloop
  endfacet
  facet normal  0.000000e+000  5.406410e-001 -8.412535e-001
    outer loop
      vertex  2.000000e+000 -5.390171e+001  1.702415e+001
      vertex  4.000000e+000 -5.390171e+001  1.702415e+001
      vertex  4.000000e+000 -5.569755e+001  1.587003e+001
    endloop
  endfacet
  facet normal  0.000000e+000  5.406410e-001 -8.412535e-001
    outer loop
      vertex  2.000000e+000 -5.390171e+001  1.702415e+001
      vertex  4.000000e+000 -5.569755e+001  1.587003e+001
      vertex  2.000000e+000 -5.569755e+001  1.587003e+001
    endloop
  endfacet
  facet normal  0.000000e+000  7.557488e-001 -6.548616e-001
    outer loop
      vertex  2.000000e+000 -5.569755e+001  1.587003e+001
      vertex  4.000000e+000 -5.569755e+001  1.587003e+001
      vertex  4.000000e+000 -5.709550e+001  1.425671e+001
    endloop
  endfacet
  facet normal  0.000000e+000  7.557488e-001 -6.548616e-001
    outer loop
      vertex  2.000000e+000 -5.569755e+001  1.587003e+001
      vertex  4.000000e+000 -5.709550e+001  1.425671e+001
      vertex  2.000000e+000 -5.709550e+001  1.425671e+001
    endloop
  endfacet
  facet normal  0.000000e+000  9.096321e-001 -4.154148e-001
    outer loop
      vertex  2.000000e+000 -5.709550e+001  1.425671e+001
      vertex  4.000000e+000 -5.709550e+001  1.425671e+001
      vertex  4.000000e+000 -5.798229e+001  1.231490e+001
    endloop
  endfacet
  facet normal  0.000000e+000  9.096321e-001 -4.154148e-001
    outer loop
      vertex  2.000000e+000 -5.709550e+001  1.425671e+001
      vertex  4.000000e+000 -5.798229e+001  1.231490e+001
      vertex  2.000000e+000 -5.798229e+001  1.231490e+001
    endloop
  endfacet
  facet normal  0.000000e+000  9.898214e-001 -1.423147e-001
    outer loop
      vertex  2.000000e+000 -5.798229e+001  1.231490e+001
      vertex  4.000000e+000 -5.798229e+001  1.231490e+001
      vertex  4.000000e+000 -5.828609e+001  1.020191e+001
    endloop
  endfacet
  facet normal  0.000000e+000  9.898214e-001 -1.423147e-001
    outer loop
      vertex  2.000000e+000 -5.798229e+001  1.231490e+001
      vertex  4.000000e+000 -5.828609e+001  1.020191e+001
      vertex  2.000000e+000 -5.828609e+001  1.020191e+001
    endloop
  endfacet
  facet normal  0.000000e+000  2.817327e-001 -9.594930e-001
    outer loop
      vertex  4.000000e+000 -5.390171e+001  1.702415e+001
      vertex  2.000000e+000 -5.185345e+001  1.762557e+001
      vertex  4.000000e+000 -5.185345e+001  1.762557e+001
    endloop
  endfacet
  facet normal  0.000000e+000  0.000000e+000 -1.000000e+000
    outer loop
      vertex  4.000000e+000 -5.185345e+001  1.762557e+001
      vertex  2.000000e+000 -5.185345e+001  1.762557e+001
      vertex  2.000000e+000 -4.971873e+001  1.762557e+001
    endloop
  endfacet
  facet normal  0.000000e+000  0.000000e+000 -1.000000e+000
    outer loop
      vertex  4.000000e+000 -5.185345e+001  1.762557e+001
      vertex  2.000000e+000 -4.971873e+001  1.762557e+001
      vertex  4.000000e+000 -4.971873e+001  1.762557e+001
    endloop
  endfacet
  facet normal  -0.000000e+000 -2.817332e-001 -9.594928e-001
    outer loop
      vertex  4.000000e+000 -4.971873e+001  1.762557e+001
      vertex  2.000000e+000 -4.971873e+001  1.762557e+001
      vertex  2.000000e+000 -4.767048e+001  1.702415e+001
    endloop
  endfacet
  facet normal  0.000000e+000 -2.817332e-001 -9.594928e-001
    outer loop
      vertex  4.000000e+000 -4.971873e+001  1.762557e+001
      vertex  2.000000e+000 -4.767048e+001  1.702415e+001
      vertex  4.000000e+000 -4.767048e+001  1.702415e+001
    endloop
  endfacet
  facet normal  -0.000000e+000 -5.406402e-001 -8.412539e-001
    outer loop
      vertex  4.000000e+000 -4.767048e+001  1.702415e+001
      vertex  2.000000e+000 -4.767048e+001  1.702415e+001
      vertex  2.000000e+000 -4.587464e+001  1.587003e+001
    endloop
  endfacet
  facet normal  0.000000e+000 -5.406402e-001 -8.412539e-001
    outer loop
      vertex  4.000000e+000 -4.767048e+001  1.702415e+001
      vertex  2.000000e+000 -4.587464e+001  1.587003e+001
      vertex  4.000000e+000 -4.587464e+001  1.587003e+001
    endloop
  endfacet
  facet normal  -0.000000e+000 -7.557496e-001 -6.548606e-001
    outer loop
      vertex  4.000000e+000 -4.587464e+001  1.587003e+001
      vertex  2.000000e+000 -4.587464e+001  1.587003e+001
      vertex  2.000000e+000 -4.447669e+001  1.425671e+001
    endloop
  endfacet
  facet normal  0.000000e+000 -7.557496e-001 -6.548606e-001
    outer loop
      vertex  4.000000e+000 -4.587464e+001  1.587003e+001
      vertex  2.000000e+000 -4.447669e+001  1.425671e+001
      vertex  4.000000e+000 -4.447669e+001  1.425671e+001
    endloop
  endfacet
  facet normal  -0.000000e+000 -9.096321e-001 -4.154148e-001
    outer loop
      vertex  4.000000e+000 -4.447669e+001  1.425671e+001
      vertex  2.000000e+000 -4.447669e+001  1.425671e+001
      vertex  2.000000e+000 -4.358990e+001  1.231490e+001
    endloop
  endfacet
  facet normal  0.000000e+000 -9.096321e-001 -4.154148e-001
    outer loop
      vertex  4.000000e+000 -4.447669e+001  1.425671e+001
      vertex  2.000000e+000 -4.358990e+001  1.231490e+001
      vertex  4.000000e+000 -4.358990e+001  1.231490e+001
    endloop
  endfacet
  facet normal  -0.000000e+000 -9.898214e-001 -1.423147e-001
    outer loop
      vertex  4.000000e+000 -4.358990e+001  1.231490e+001
      vertex  2.000000e+000 -4.358990e+001  1.231490e+001
      vertex  2.000000e+000 -4.328609e+001  1.020191e+001
    endloop
  endfacet
  facet normal  0.000000e+000 -9.898214e-001 -1.423147e-001
    outer loop
      vertex  4.000000e+000 -4.358990e+001  1.231490e+001
      vertex  2.000000e+000 -4.328609e+001  1.020191e+001
      vertex  4.000000e+000 -4.328609e+001  1.020191e+001
    endloop
  endfacet
  facet normal  0.000000e+000  2.817327e-001 -9.594930e-001
    outer loop
      vertex -4.000000e+000 -5.185345e+001  1.762557e+001
      vertex -2.000000e+000 -5.390171e+001  1.702415e+001
      vertex -4.000000e+000 -5.390171e+001  1.702415e+001
    endloop
  endfacet
  facet normal  0.000000e+000  5.406410e-001 -8.412535e-001
    outer loop
      vertex -4.000000e+000 -5.390171e+001  1.702415e+001
      vertex -2.000000e+000 -5.390171e+001  1.702415e+001
      vertex -2.000000e+000 -5.569755e+001  1.587003e+001
    endloop
  endfacet
  facet normal  0.000000e+000  5.406410e-001 -8.412535e-001
    outer loop
      vertex -4.000000e+000 -5.390171e+001  1.702415e+001
      vertex -2.000000e+000 -5.569755e+001  1.587003e+001
      vertex -4.000000e+000 -5.569755e+001  1.587003e+001
    endloop
  endfacet
  facet normal  0.000000e+000  7.557488e-001 -6.548616e-001
    outer loop
      vertex -4.000000e+000 -5.569755e+001  1.587003e+001
      vertex -2.000000e+000 -5.569755e+001  1.587003e+001
      vertex -2.000000e+000 -5.709550e+001  1.425671e+001
    endloop
  endfacet
  facet normal  0.000000e+000  7.557488e-001 -6.548616e-001
    outer loop
      vertex -4.000000e+000 -5.569755e+001  1.587003e+001
      vertex -2.000000e+000 -5.709550e+001  1.425671e+001
      vertex -4.000000e+000 -5.709550e+001  1.425671e+001
    endloop
  endfacet
  facet normal  0.000000e+000  9.096321e-001 -4.154148e-001
    outer loop
      vertex -4.000000e+000 -5.709550e+001  1.425671e+001
      vertex -2.000000e+000 -5.709550e+001  1.425671e+001
      vertex -2.000000e+000 -5.798229e+001  1.231490e+001
    endloop
  endfacet
  facet normal  0.000000e+000  9.096321e-001 -4.154148e-001
    outer loop
      vertex -4.000000e+000 -5.709550e+001  1.425671e+001
      vertex -2.000000e+000 -5.798229e+001  1.231490e+001
      vertex -4.000000e+000 -5.798229e+001  1.231490e+001
    endloop
  endfacet
  facet normal  0.000000e+000  9.898214e-001 -1.423147e-001
    outer loop
      vertex -4.000000e+000 -5.798229e+001  1.231490e+001
      vertex -2.000000e+000 -5.798229e+001  1.231490e+001
      vertex -2.000000e+000 -5.828609e+001  1.020191e+001
    endloop
  endfacet
  facet normal  0.000000e+000  9.898214e-001 -1.423147e-001
    outer loop
      vertex -4.000000e+000 -5.798229e+001  1.231490e+001
      vertex -2.000000e+000 -5.828609e+001  1.020191e+001
      vertex -4.000000e+000 -5.828609e+001  1.020191e+001
    endloop
  endfacet
  facet normal  0.000000e+000  2.817327e-001 -9.594930e-001
    outer loop
      vertex -2.000000e+000 -5.390171e+001  1.702415e+001
      vertex -4.000000e+000 -5.185345e+001  1.762557e+001
      vertex -2.000000e+000 -5.185345e+001  1.762557e+001
    endloop
  endfacet
  facet normal  0.000000e+000  0.000000e+000 -1.000000e+000
    outer loop
      vertex -2.000000e+000 -5.185345e+001  1.762557e+001
      vertex -4.000000e+000 -5.185345e+001  1.762557e+001
      vertex -4.000000e+000 -4.971873e+001  1.762557e+001
    endloop
  endfacet
  facet normal  0.000000e+000  0.000000e+000 -1.000000e+000
    outer loop
      vertex -2.000000e+000 -5.185345e+001  1.762557e+001
      vertex -4.000000e+000 -4.971873e+001  1.762557e+001
      vertex -2.000000e+000 -4.971873e+001  1.762557e+001
    endloop
  endfacet
  facet normal  -0.000000e+000 -2.817332e-001 -9.594928e-001
    outer loop
      vertex -2.000000e+000 -4.971873e+001  1.762557e+001
      vertex -4.000000e+000 -4.971873e+001  1.762557e+001
      vertex -4.000000e+000 -4.767048e+001  1.702415e+001
    endloop
  endfacet
  facet normal  0.000000e+000 -2.817332e-001 -9.594928e-001
    outer loop
      vertex -2.000000e+000 -4.971873e+001  1.762557e+001
      vertex -4.000000e+000 -4.767048e+001  1.702415e+001
      vertex -2.000000e+000 -4.767048e+001  1.702415e+001
    endloop
  endfacet
  facet normal  -0.000000e+000 -5.406402e-001 -8.412539e-001
    outer loop
      vertex -2.000000e+000 -4.767048e+001  1.702415e+001
      vertex -4.000000e+000 -4.767048e+001  1.702415e+001
      vertex -4.000000e+000 -4.587464e+001  1.587003e+001
    endloop
  endfacet
  facet normal  0.000000e+000 -5.406402e-001 -8.412539e-001
    outer loop
      vertex -2.000000e+000 -4.767048e+001  1.702415e+001
      vertex -4.000000e+000 -4.587464e+001  1.587003e+001
      vertex -2.000000e+000 -4.587464e+001  1.587003e+001
    endloop
  endfacet
  facet normal  -0.000000e+000 -7.557496e-001 -6.548606e-001
    outer loop
      vertex -2.000000e+000 -4.587464e+001  1.587003e+001
      vertex -4.000000e+000 -4.587464e+001  1.587003e+001
      vertex -4.000000e+000 -4.447669e+001  1.425671e+001
    endloop
  endfacet
  facet normal  0.000000e+000 -7.557496e-001 -6.548606e-001
    outer loop
      vertex -2.000000e+000 -4.587464e+001  1.587003e+001
      vertex -4.000000e+000 -4.447669e+001  1.425671e+001
      vertex -2.000000e+000 -4.447669e+001  1.425671e+001
    endloop
  endfacet
  facet normal  -0.000000e+000 -9.096321e-001 -4.154148e-001
    outer loop
      vertex -2.000000e+000 -4.447669e+001  1.425671e+001
      vertex -4.000000e+000 -4.447669e+001  1.425671e+001
      vertex -4.000000e+000 -4.358990e+001  1.231490e+001
    endloop
  endfacet
  facet normal  0.000000e+000 -9.096321e-001 -4.154148e-001
    outer loop
      vertex -2.000000e+000 -4.447669e+001  1.425671e+001
      vertex -4.000000e+000 -4.358990e+001  1.231490e+001
      vertex -2.000000e+000 -4.358990e+001  1.231490e+001
    endloop
  endfacet
  facet normal  -0.000000e+000 -9.898214e-001 -1.423147e-001
    outer loop
      vertex -2.000000e+000 -4.358990e+001  1.231490e+001
      vertex -4.000000e+000 -4.358990e+001  1.231490e+001
      vertex -4.000000e+000 -4.328609e+001  1.020191e+001
    endloop
  endfacet
  facet normal  0.000000e+000 -9.898214e-001 -1.423147e-001
    outer loop
      vertex -2.000000e+000 -4.358990e+001  1.231490e+001
      vertex -4.000000e+000 -4.328609e+001  1.020191e+001
      vertex -2.000000e+000 -4.328609e+001  1.020191e+001
    endloop
  endfacet
  facet normal  0.000000e+000 -2.817330e-001  9.594929e-001
    outer loop
      vertex  2.000000e+000 -4.971873e+001  2.778245e+000
      vertex  4.000000e+000 -4.767048e+001  3.379666e+000
      vertex  2.000000e+000 -4.767048e+001  3.379666e+000
    endloop
  endfacet
  facet normal  0.000000e+000 -5.406404e-001  8.412538e-001
    outer loop
      vertex  2.000000e+000 -4.767048e+001  3.379666e+000
      vertex  4.000000e+000 -4.767048e+001  3.379666e+000
      vertex  4.000000e+000 -4.587464e+001  4.533784e+000
    endloop
  endfacet
  facet normal  0.000000e+000 -5.406404e-001  8.412538e-001
    outer loop
      vertex  2.000000e+000 -4.767048e+001  3.379666e+000
      vertex  4.000000e+000 -4.587464e+001  4.533784e+000
      vertex  2.000000e+000 -4.587464e+001  4.533784e+000
    endloop
  endfacet
  facet normal  0.000000e+000 -7.557496e-001  6.548606e-001
    outer loop
      vertex  2.000000e+000 -4.587464e+001  4.533784e+000
      vertex  4.000000e+000 -4.587464e+001  4.533784e+000
      vertex  4.000000e+000 -4.447669e+001  6.147100e+000
    endloop
  endfacet
  facet normal  0.000000e+000 -7.557496e-001  6.548606e-001
    outer loop
      vertex  2.000000e+000 -4.587464e+001  4.533784e+000
      vertex  4.000000e+000 -4.447669e+001  6.147100e+000
      vertex  2.000000e+000 -4.447669e+001  6.147100e+000
    endloop
  endfacet
  facet normal  0.000000e+000 -9.096322e-001  4.154147e-001
    outer loop
      vertex  2.000000e+000 -4.447669e+001  6.147100e+000
      vertex  4.000000e+000 -4.447669e+001  6.147100e+000
      vertex  4.000000e+000 -4.358990e+001  8.088912e+000
    endloop
  endfacet
  facet normal  0.000000e+000 -9.096322e-001  4.154147e-001
    outer loop
      vertex  2.000000e+000 -4.447669e+001  6.147100e+000
      vertex  4.000000e+000 -4.358990e+001  8.088912e+000
      vertex  2.000000e+000 -4.358990e+001  8.088912e+000
    endloop
  endfacet
  facet normal  0.000000e+000 -9.898214e-001  1.423147e-001
    outer loop
      vertex  2.000000e+000 -4.358990e+001  8.088912e+000
      vertex  4.000000e+000 -4.358990e+001  8.088912e+000
      vertex  4.000000e+000 -4.328609e+001  1.020191e+001
    endloop
  endfacet
  facet normal  0.000000e+000 -9.898214e-001  1.423147e-001
    outer loop
      vertex  2.000000e+000 -4.358990e+001  8.088912e+000
      vertex  4.000000e+000 -4.328609e+001  1.020191e+001
      vertex  2.000000e+000 -4.328609e+001  1.020191e+001
    endloop
  endfacet
  facet normal  0.000000e+000 -2.817330e-001  9.594929e-001
    outer loop
      vertex  4.000000e+000 -4.767048e+001  3.379666e+000
      vertex  2.000000e+000 -4.971873e+001  2.778245e+000
      vertex  4.000000e+000 -4.971873e+001  2.778245e+000
    endloop
  endfacet
  facet normal  0.000000e+000  0.000000e+000  1.000000e+000
    outer loop
      vertex  4.000000e+000 -4.971873e+001  2.778245e+000
      vertex  2.000000e+000 -4.971873e+001  2.778245e+000
      vertex  2.000000e+000 -5.185345e+001  2.778245e+000
    endloop
  endfacet
  facet normal  0.000000e+000  0.000000e+000  1.000000e+000
    outer loop
      vertex  4.000000e+000 -4.971873e+001  2.778245e+000
      vertex  2.000000e+000 -5.185345e+001  2.778245e+000
      vertex  4.000000e+000 -5.185345e+001  2.778245e+000
    endloop
  endfacet
  facet normal  0.000000e+000  2.817325e-001  9.594930e-001
    outer loop
      vertex  4.000000e+000 -5.185345e+001  2.778245e+000
      vertex  2.000000e+000 -5.185345e+001  2.778245e+000
      vertex  2.000000e+000 -5.390171e+001  3.379666e+000
    endloop
  endfacet
  facet normal  -0.000000e+000  2.817325e-001  9.594930e-001
    outer loop
      vertex  4.000000e+000 -5.185345e+001  2.778245e+000
      vertex  2.000000e+000 -5.390171e+001  3.379666e+000
      vertex  4.000000e+000 -5.390171e+001  3.379666e+000
    endloop
  endfacet
  facet normal  0.000000e+000  5.406412e-001  8.412533e-001
    outer loop
      vertex  4.000000e+000 -5.390171e+001  3.379666e+000
      vertex  2.000000e+000 -5.390171e+001  3.379666e+000
      vertex  2.000000e+000 -5.569755e+001  4.533784e+000
    endloop
  endfacet
  facet normal  -0.000000e+000  5.406412e-001  8.412533e-001
    outer loop
      vertex  4.000000e+000 -5.390171e+001  3.379666e+000
      vertex  2.000000e+000 -5.569755e+001  4.533784e+000
      vertex  4.000000e+000 -5.569755e+001  4.533784e+000
    endloop
  endfacet
  facet normal  0.000000e+000  7.557488e-001  6.548616e-001
    outer loop
      vertex  4.000000e+000 -5.569755e+001  4.533784e+000
      vertex  2.000000e+000 -5.569755e+001  4.533784e+000
      vertex  2.000000e+000 -5.709550e+001  6.147100e+000
    endloop
  endfacet
  facet normal  -0.000000e+000  7.557488e-001  6.548616e-001
    outer loop
      vertex  4.000000e+000 -5.569755e+001  4.533784e+000
      vertex  2.000000e+000 -5.709550e+001  6.147100e+000
      vertex  4.000000e+000 -5.709550e+001  6.147100e+000
    endloop
  endfacet
  facet normal  0.000000e+000  9.096322e-001  4.154147e-001
    outer loop
      vertex  4.000000e+000 -5.709550e+001  6.147100e+000
      vertex  2.000000e+000 -5.709550e+001  6.147100e+000
      vertex  2.000000e+000 -5.798229e+001  8.088912e+000
    endloop
  endfacet
  facet normal  -0.000000e+000  9.096322e-001  4.154147e-001
    outer loop
      vertex  4.000000e+000 -5.709550e+001  6.147100e+000
      vertex  2.000000e+000 -5.798229e+001  8.088912e+000
      vertex  4.000000e+000 -5.798229e+001  8.088912e+000
    endloop
  endfacet
  facet normal  0.000000e+000  9.898214e-001  1.423147e-001
    outer loop
      vertex  4.000000e+000 -5.798229e+001  8.088912e+000
      vertex  2.000000e+000 -5.798229e+001  8.088912e+000
      vertex  2.000000e+000 -5.828609e+001  1.020191e+001
    endloop
  endfacet
  facet normal  -0.000000e+000  9.898214e-001  1.423147e-001
    outer loop
      vertex  4.000000e+000 -5.798229e+001  8.088912e+000
      vertex  2.000000e+000 -5.828609e+001  1.020191e+001
      vertex  4.000000e+000 -5.828609e+001  1.020191e+001
    endloop
  endfacet
  facet normal  0.000000e+000 -2.817330e-001  9.594929e-001
    outer loop
      vertex -4.000000e+000 -4.971873e+001  2.778245e+000
      vertex -2.000000e+000 -4.767048e+001  3.379666e+000
      vertex -4.000000e+000 -4.767048e+001  3.379666e+000
    endloop
  endfacet
  facet normal  0.000000e+000 -5.406404e-001  8.412538e-001
    outer loop
      vertex -4.000000e+000 -4.767048e+001  3.379666e+000
      vertex -2.000000e+000 -4.767048e+001  3.379666e+000
      vertex -2.000000e+000 -4.587464e+001  4.533784e+000
    endloop
  endfacet
  facet normal  0.000000e+000 -5.406404e-001  8.412538e-001
    outer loop
      vertex -4.000000e+000 -4.767048e+001  3.379666e+000
      vertex -2.000000e+000 -4.587464e+001  4.533784e+000
      vertex -4.000000e+000 -4.587464e+001  4.533784e+000
    endloop
  endfacet
  facet normal  0.000000e+000 -7.557496e-001  6.548606e-001
    outer loop
      vertex -4.000000e+000 -4.587464e+001  4.533784e+000
      vertex -2.000000e+000 -4.587464e+001  4.533784e+000
      vertex -2.000000e+000 -4.447669e+001  6.147100e+000
    endloop
  endfacet
  facet normal  0.000000e+000 -7.557496e-001  6.548606e-001
    outer loop
      vertex -4.000000e+000 -4.587464e+001  4.533784e+000
      vertex -2.000000e+000 -4.447669e+001  6.147100e+000
      vertex -4.000000e+000 -4.447669e+001  6.147100e+000
    endloop
  endfacet
  facet normal  0.000000e+000 -9.096322e-001  4.154147e-001
    outer loop
      vertex -4.000000e+000 -4.447669e+001  6.147100e+000
      vertex -2.000000e+000 -4.447669e+001  6.147100e+000
      vertex -2.000000e+000 -4.358990e+001  8.088912e+000
    endloop
  endfacet
  facet normal  0.000000e+000 -9.096322e-001  4.154147e-001
    outer loop
      vertex -4.000000e+000 -4.447669e+001  6.147100e+000
      vertex -2.000000e+000 -4.358990e+001  8.088912e+000
      vertex -4.000000e+000 -4.358990e+001  8.088912e+000
    endloop
  endfacet
  facet normal  0.000000e+000 -9.898214e-001  1.423147e-001
    outer loop
      vertex -4.000000e+000 -4.358990e+001  8.088912e+000
      vertex -2.000000e+000 -4.358990e+001  8.088912e+000
      vertex -2.000000e+000 -4.328609e+001  1.020191e+001
    endloop
  endfacet
  facet normal  0.000000e+000 -9.898214e-001  1.423147e-001
    outer loop
      vertex -4.000000e+000 -4.358990e+001  8.088912e+000
      vertex -2.000000e+000 -4.328609e+001  1.020191e+001
      vertex -4.000000e+000 -4.328609e+001  1.020191e+001
    endloop
  endfacet
  facet normal  0.000000e+000 -2.817330e-001  9.594929e-001
    outer loop
      vertex -2.000000e+000 -4.767048e+001  3.379666e+000
      vertex -4.000000e+000 -4.971873e+001  2.778245e+000
      vertex -2.000000e+000 -4.971873e+001  2.778245e+000
    endloop
  endfacet
  facet normal  0.000000e+000  0.000000e+000  1.000000e+000
    outer loop
      vertex -2.000000e+000 -4.971873e+001  2.778245e+000
      vertex -4.000000e+000 -4.971873e+001  2.778245e+000
      vertex -4.000000e+000 -5.185345e+001  2.778245e+000
    endloop
  endfacet
  facet normal  0.000000e+000  0.000000e+000  1.000000e+000
    outer loop
      vertex -2.000000e+000 -4.971873e+001  2.778245e+000
      vertex -4.000000e+000 -5.185345e+001  2.778245e+000
      vertex -2.000000e+000 -5.185345e+001  2.778245e+000
    endloop
  endfacet
  facet normal  0.000000e+000  2.817325e-001  9.594930e-001
    outer loop
      vertex -2.000000e+000 -5.185345e+001  2.778245e+000
      vertex -4.000000e+000 -5.185345e+001  2.778245e+000
      vertex -4.000000e+000 -5.390171e+001  3.379666e+000
    endloop
  endfacet
  facet normal  -0.000000e+000  2.817325e-001  9.594930e-001
    outer loop
      vertex -2.000000e+000 -5.185345e+001  2.778245e+000
      vertex -4.000000e+000 -5.390171e+001  3.379666e+000
      vertex -2.000000e+000 -5.390171e+001  3.379666e+000
    endloop
  endfacet
  facet normal  0.000000e+000  5.406412e-001  8.412533e-001
    outer loop
      vertex -2.000000e+000 -5.390171e+001  3.379666e+000
      vertex -4.000000e+000 -5.390171e+001  3.379666e+000
      vertex -4.000000e+000 -5.569755e+001  4.533784e+000
    endloop
  endfacet
  facet normal  -0.000000e+000  5.406412e-001  8.412533e-001
    outer loop
      vertex -2.000000e+000 -5.390171e+001  3.379666e+000
      vertex -4.000000e+000 -5.569755e+001  4.533784e+000
      vertex -2.000000e+000 -5.569755e+001  4.533784e+000
    endloop
  endfacet
  facet normal  0.000000e+000  7.557488e-001  6.548616e-001
    outer loop
      vertex -2.000000e+000 -5.569755e+001  4.533784e+000
      vertex -4.000000e+000 -5.569755e+001  4.533784e+000
      vertex -4.000000e+000 -5.709550e+001  6.147100e+000
    endloop
  endfacet
  facet normal  -0.000000e+000  7.557488e-001  6.548616e-001
    outer loop
      vertex -2.000000e+000 -5.569755e+001  4.533784e+000
      vertex -4.000000e+000 -5.709550e+001  6.147100e+000
      vertex -2.000000e+000 -5.709550e+001  6.147100e+000
    endloop
  endfacet
  facet normal  0.000000e+000  9.096322e-001  4.154147e-001
    outer loop
      vertex -2.000000e+000 -5.709550e+001  6.147100e+000
      vertex -4.000000e+000 -5.709550e+001  6.147100e+000
      vertex -4.000000e+000 -5.798229e+001  8.088912e+000
    endloop
  endfacet
  facet normal  -0.000000e+000  9.096322e-001  4.154147e-001
    outer loop
      vertex -2.000000e+000 -5.709550e+001  6.147100e+000
      vertex -4.000000e+000 -5.798229e+001  8.088912e+000
      vertex -2.000000e+000 -5.798229e+001  8.088912e+000
    endloop
  endfacet
  facet normal  0.000000e+000  9.898214e-001  1.423147e-001
    outer loop
      vertex -2.000000e+000 -5.798229e+001  8.088912e+000
      vertex -4.000000e+000 -5.798229e+001  8.088912e+000
      vertex -4.000000e+000 -5.828609e+001  1.020191e+001
    endloop
  endfacet
  facet normal  -0.000000e+000  9.898214e-001  1.423147e-001
    outer loop
      vertex -2.000000e+000 -5.798229e+001  8.088912e+000
      vertex -4.000000e+000 -5.828609e+001  1.020191e+001
      vertex -2.000000e+000 -5.828609e+001  1.020191e+001
    endloop
  endfacet
  facet normal  0.000000e+000  0.000000e+000  1.000000e+000
    outer loop
      vertex -4.000000e+000 -7.200000e+001  2.000000e+001
      vertex -2.000000e+000 -7.200000e+001  2.000000e+001
      vertex -4.000000e+000 -3.200000e+001  2.000000e+001
    endloop
  endfacet
  facet normal  -0.000000e+000  0.000000e+000  1.000000e+000
    outer loop
      vertex -4.000000e+000 -3.200000e+001  2.000000e+001
      vertex -2.000000e+000 -7.200000e+001  2.000000e+001
      vertex -2.000000e+000 -3.000000e+001  2.000000e+001
    endloop
  endfacet
  facet normal  0.000000e+000  0.000000e+000  1.000000e+000
    outer loop
      vertex -4.000000e+000 -3.200000e+001  2.000000e+001
      vertex -2.000000e+000 -3.000000e+001  2.000000e+001
      vertex -2.200000e+001 -3.200000e+001  2.000000e+001
    endloop
  endfacet
  facet normal  0.000000e+000  0.000000e+000  1.000000e+000
    outer loop
      vertex -2.200000e+001 -3.200000e+001  2.000000e+001
      vertex -2.000000e+000 -3.000000e+001  2.000000e+001
      vertex -2.000000e+001 -3.000000e+001  2.000000e+001
    endloop
  endfacet
  facet normal  0.000000e+000  0.000000e+000  1.000000e+000
    outer loop
      vertex -2.200000e+001 -3.200000e+001  2.000000e+001
      vertex -2.000000e+001 -3.000000e+001  2.000000e+001
      vertex -2.200000e+001  3.200000e+001  2.000000e+001
    endloop
  endfacet
  facet normal  0.000000e+000  0.000000e+000  1.000000e+000
    outer loop
      vertex -2.200000e+001  3.200000e+001  2.000000e+001
      vertex -2.000000e+001 -3.000000e+001  2.000000e+001
      vertex -2.000000e+001  3.000000e+001  2.000000e+001
    endloop
  endfacet
  facet normal  0.000000e+000  -0.000000e+000  1.000000e+000
    outer loop
      vertex -2.200000e+001  3.200000e+001  2.000000e+001
      vertex -2.000000e+001  3.000000e+001  2.000000e+001
      vertex  0.000000e+000  3.200000e+001  2.000000e+001
    endloop
  endfacet
  facet normal  0.000000e+000  0.000000e+000  1.000000e+000
    outer loop
      vertex  0.000000e+000  3.200000e+001  2.000000e+001
      vertex -2.000000e+001  3.000000e+001  2.000000e+001
      vertex  2.200000e+001  3.200000e+001  2.000000e+001
    endloop
  endfacet
  facet normal  0.000000e+000  0.000000e+000  1.000000e+000
    outer loop
      vertex  2.200000e+001  3.200000e+001  2.000000e+001
      vertex -2.000000e+001  3.000000e+001  2.000000e+001
      vertex  0.000000e+000  3.000000e+001  2.000000e+001
    endloop
  endfacet
  facet normal  0.000000e+000  0.000000e+000  1.000000e+000
    outer loop
      vertex  2.200000e+001  3.200000e+001  2.000000e+001
      vertex  0.000000e+000  3.000000e+001  2.000000e+001
      vertex  2.000000e+001  3.000000e+001  2.000000e+001
    endloop
  endfacet
  facet normal  -0.000000e+000  0.000000e+000  1.000000e+000
    outer loop
      vertex  2.200000e+001  3.200000e+001  2.000000e+001
      vertex  2.000000e+001  3.000000e+001  2.000000e+001
      vertex  2.200000e+001 -3.200000e+001  2.000000e+001
    endloop
  endfacet
  facet normal  0.000000e+000  0.000000e+000  1.000000e+000
    outer loop
      vertex  2.200000e+001 -3.200000e+001  2.000000e+001
      vertex  2.000000e+001  3.000000e+001  2.000000e+001
      vertex  2.000000e+001 -3.000000e+001  2.000000e+001
    endloop
  endfacet
  facet normal  0.000000e+000  0.000000e+000  1.000000e+000
    outer loop
      vertex  2.200000e+001 -3.200000e+001  2.000000e+001
      vertex  2.000000e+001 -3.000000e+001  2.000000e+001
      vertex  4.000000e+000 -3.200000e+001  2.000000e+001
    endloop
  endfacet
  facet normal  0.000000e+000  -0.000000e+000  1.000000e+000
    outer loop
      vertex  4.000000e+000 -3.200000e+001  2.000000e+001
      vertex  2.000000e+001 -3.000000e+001  2.000000e+001
      vertex  2.000000e+000 -3.000000e+001  2.000000e+001
    endloop
  endfacet
  facet normal  0.000000e+000  0.000000e+000  1.000000e+000
    outer loop
      vertex  4.000000e+000 -3.200000e+001  2.000000e+001
      vertex  2.000000e+000 -3.000000e+001  2.000000e+001
      vertex  4.000000e+000 -7.200000e+001  2.000000e+001
    endloop
  endfacet
  facet normal  0.000000e+000  0.000000e+000  1.000000e+000
    outer loop
      vertex  4.000000e+000 -7.200000e+001  2.000000e+001
      vertex  2.000000e+000 -3.000000e+001  2.000000e+001
      vertex  2.000000e+000 -7.200000e+001  2.000000e+001
    endloop
  endfacet
  facet normal  0.000000e+000  0.000000e+000 -1.000000e+000
    outer loop
      vertex  0.000000e+000  3.200000e+001  0.000000e+000
      vertex -2.000000e+001  3.000000e+001  0.000000e+000
      vertex -2.200000e+001  3.200000e+001  0.000000e+000
    endloop
  endfacet
  facet normal  0.000000e+000  0.000000e+000 -1.000000e+000
    outer loop
      vertex -2.200000e+001  3.200000e+001  0.000000e+000
      vertex -2.000000e+001  3.000000e+001  0.000000e+000
      vertex -2.000000e+001 -3.000000e+001  0.000000e+000
    endloop
  endfacet
  facet normal  -0.000000e+000  0.000000e+000 -1.000000e+000
    outer loop
      vertex -2.200000e+001  3.200000e+001  0.000000e+000
      vertex -2.000000e+001 -3.000000e+001  0.000000e+000
      vertex -2.200000e+001 -3.200000e+001  0.000000e+000
    endloop
  endfacet
  facet normal  0.000000e+000  0.000000e+000 -1.000000e+000
    outer loop
      vertex -2.200000e+001 -3.200000e+001  0.000000e+000
      vertex -2.000000e+001 -3.000000e+001  0.000000e+000
      vertex -2.000000e+000 -3.000000e+001  0.000000e+000
    endloop
  endfacet
  facet normal  0.000000e+000  0.000000e+000 -1.000000e+000
    outer loop
      vertex -2.200000e+001 -3.200000e+001  0.000000e+000
      vertex -2.000000e+000 -3.000000e+001  0.000000e+000
      vertex -4.000000e+000 -3.200000e+001  0.000000e+000
    endloop
  endfacet
  facet normal  0.000000e+000  0.000000e+000 -1.000000e+000
    outer loop
      vertex -4.000000e+000 -3.200000e+001  0.000000e+000
      vertex -2.000000e+000 -3.000000e+001  0.000000e+000
      vertex -2.000000e+000 -7.200000e+001  0.000000e+000
    endloop
  endfacet
  facet normal  0.000000e+000  0.000000e+000 -1.000000e+000
    outer loop
      vertex -4.000000e+000 -3.200000e+001  0.000000e+000
      vertex -2.000000e+000 -7.200000e+001  0.000000e+000
      vertex -4.000000e+000 -7.200000e+001  0.000000e+000
    endloop
  endfacet
  facet normal  0.000000e+000  0.000000e+000 -1.000000e+000
    outer loop
      vertex  2.000000e+001  3.000000e+001  0.000000e+000
      vertex  0.000000e+000  3.000000e+001  0.000000e+000
      vertex  2.200000e+001  3.200000e+001  0.000000e+000
    endloop
  endfacet
  facet normal  0.000000e+000  0.000000e+000 -1.000000e+000
    outer loop
      vertex  2.200000e+001  3.200000e+001  0.000000e+000
      vertex  0.000000e+000  3.000000e+001  0.000000e+000
      vertex -2.000000e+001  3.000000e+001  0.000000e+000
    endloop
  endfacet
  facet normal  0.000000e+000  0.000000e+000 -1.000000e+000
    outer loop
      vertex  2.200000e+001  3.200000e+001  0.000000e+000
      vertex -2.000000e+001  3.000000e+001  0.000000e+000
      vertex  0.000000e+000  3.200000e+001  0.000000e+000
    endloop
  endfacet
  facet normal  0.000000e+000  0.000000e+000 -1.000000e+000
    outer loop
      vertex  2.200000e+001 -3.200000e+001  0.000000e+000
      vertex  2.000000e+001  3.000000e+001  0.000000e+000
      vertex  2.200000e+001  3.200000e+001  0.000000e+000
    endloop
  endfacet
  facet normal  0.000000e+000  0.000000e+000 -1.000000e+000
    outer loop
      vertex  2.000000e+001  3.000000e+001  0.000000e+000
      vertex  2.200000e+001 -3.200000e+001  0.000000e+000
      vertex  2.000000e+001 -3.000000e+001  0.000000e+000
    endloop
  endfacet
  facet normal  0.000000e+000  -0.000000e+000 -1.000000e+000
    outer loop
      vertex  2.000000e+001 -3.000000e+001  0.000000e+000
      vertex  2.200000e+001 -3.200000e+001  0.000000e+000
      vertex  4.000000e+000 -3.200000e+001  0.000000e+000
    endloop
  endfacet
  facet normal  0.000000e+000  0.000000e+000 -1.000000e+000
    outer loop
      vertex  2.000000e+001 -3.000000e+001  0.000000e+000
      vertex  4.000000e+000 -3.200000e+001  0.000000e+000
      vertex  2.000000e+000 -3.000000e+001  0.000000e+000
    endloop
  endfacet
  facet normal  0.000000e+000  0.000000e+000 -1.000000e+000
    outer loop
      vertex  2.000000e+000 -3.000000e+001  0.000000e+000
      vertex  4.000000e+000 -3.200000e+001  0.000000e+000
      vertex  4.000000e+000 -7.200000e+001  0.000000e+000
    endloop
  endfacet
  facet normal  0.000000e+000  0.000000e+000 -1.000000e+000
    outer loop
      vertex  2.000000e+000 -3.000000e+001  0.000000e+000
      vertex  4.000000e+000 -7.200000e+001  0.000000e+000
      vertex  2.000000e+000 -7.200000e+001  0.000000e+000
    endloop
  endfacet
  facet normal  0.000000e+000 -1.000000e+000  0.000000e+000
    outer loop
      vertex -4.000000e+000 -7.200000e+001  0.000000e+000
      vertex -2.000000e+000 -7.200000e+001  0.000000e+000
      vertex -4.000000e+000 -7.200000e+001  2.000000e+001
    endloop
  endfacet
  facet normal  0.000000e+000 -1.000000e+000  0.000000e+000
    outer loop
      vertex -4.000000e+000 -7.200000e+001  2.000000e+001
      vertex -2.000000e+000 -7.200000e+001  0.000000e+000
      vertex -2.000000e+000 -7.200000e+001  2.000000e+001
    endloop
  endfacet
  facet normal  0.000000e+000 -1.000000e+000  0.000000e+000
    outer loop
      vertex -2.200000e+001 -3.200000e+001  2.000000e+001
      vertex -2.200000e+001 -3.200000e+001  0.000000e+000
      vertex -4.000000e+000 -3.200000e+001  2.000000e+001
    endloop
  endfacet
  facet normal  0.000000e+000 -1.000000e+000  -0.000000e+000
    outer loop
      vertex -4.000000e+000 -3.200000e+001  2.000000e+001
      vertex -2.200000e+001 -3.200000e+001  0.000000e+000
      vertex -4.000000e+000 -3.200000e+001  0.000000e+000
    endloop
  endfacet
  facet normal -1.000000e+000  -0.000000e+000  0.000000e+000
    outer loop
      vertex -2.200000e+001 -3.200000e+001  2.000000e+001
      vertex -2.200000e+001  3.200000e+001  2.000000e+001
      vertex -2.200000e+001 -3.200000e+001  0.000000e+000
    endloop
  endfacet
  facet normal -1.000000e+000  0.000000e+000  0.000000e+000
    outer loop
      vertex -2.200000e+001 -3.200000e+001  0.000000e+000
      vertex -2.200000e+001  3.200000e+001  2.000000e+001
      vertex -2.200000e+001  3.200000e+001  0.000000e+000
    endloop
  endfacet
  facet normal  0.000000e+000  9.999999e-001  -0.000000e+000
    outer loop
      vertex  0.000000e+000  3.200000e+001  2.000000e+001
      vertex  0.000000e+000  3.200000e+001  0.000000e+000
      vertex -2.200000e+001  3.200000e+001  2.000000e+001
    endloop
  endfacet
  facet normal  0.000000e+000  9.999999e-001  0.000000e+000
    outer loop
      vertex -2.200000e+001  3.200000e+001  2.000000e+001
      vertex  0.000000e+000  3.200000e+001  0.000000e+000
      vertex -2.200000e+001  3.200000e+001  0.000000e+000
    endloop
  endfacet
  facet normal  0.000000e+000  9.999999e-001  -0.000000e+000
    outer loop
      vertex  2.200000e+001  3.200000e+001  2.000000e+001
      vertex  2.200000e+001  3.200000e+001  0.000000e+000
      vertex  0.000000e+000  3.200000e+001  2.000000e+001
    endloop
  endfacet
  facet normal  0.000000e+000  9.999999e-001  0.000000e+000
    outer loop
      vertex  0.000000e+000  3.200000e+001  2.000000e+001
      vertex  2.200000e+001  3.200000e+001  0.000000e+000
      vertex  0.000000e+000  3.200000e+001  0.000000e+000
    endloop
  endfacet
  facet normal  1.000000e+000  0.000000e+000  0.000000e+000
    outer loop
      vertex  2.200000e+001 -3.200000e+001  2.000000e+001
      vertex  2.200000e+001 -3.200000e+001  0.000000e+000
      vertex  2.200000e+001  3.200000e+001  2.000000e+001
    endloop
  endfacet
  facet normal  1.000000e+000  0.000000e+000  0.000000e+000
    outer loop
      vertex  2.200000e+001  3.200000e+001  2.000000e+001
      vertex  2.200000e+001 -3.200000e+001  0.000000e+000
      vertex  2.200000e+001  3.200000e+001  0.000000e+000
    endloop
  endfacet
  facet normal  0.000000e+000 -1.000000e+000  0.000000e+000
    outer loop
      vertex  4.000000e+000 -3.200000e+001  2.000000e+001
      vertex  4.000000e+000 -3.200000e+001  0.000000e+000
      vertex  2.200000e+001 -3.200000e+001  2.000000e+001
    endloop
  endfacet
  facet normal  0.000000e+000 -1.000000e+000  -0.000000e+000
    outer loop
      vertex  2.200000e+001 -3.200000e+001  2.000000e+001
      vertex  4.000000e+000 -3.200000e+001  0.000000e+000
      vertex  2.200000e+001 -3.200000e+001  0.000000e+000
    endloop
  endfacet
  facet normal  0.000000e+000 -1.000000e+000  0.000000e+000
    outer loop
      vertex  2.000000e+000 -7.200000e+001  0.000000e+000
      vertex  4.000000e+000 -7.200000e+001  0.000000e+000
      vertex  2.000000e+000 -7.200000e+001  2.000000e+001
    endloop
  endfacet
  facet normal  0.000000e+000 -1.000000e+000  0.000000e+000
    outer loop
      vertex  2.000000e+000 -7.200000e+001  2.000000e+001
      vertex  4.000000e+000 -7.200000e+001  0.000000e+000
      vertex  4.000000e+000 -7.200000e+001  2.000000e+001
    endloop
  endfacet
  facet normal  0.000000e+000  1.000000e+000  0.000000e+000
    outer loop
      vertex  2.000000e+000 -3.000000e+001  2.000000e+001
      vertex  2.000000e+001 -3.000000e+001  2.000000e+001
      vertex  2.000000e+000 -3.000000e+001  0.000000e+000
    endloop
  endfacet
  facet normal  0.000000e+000  1.000000e+000  0.000000e+000
    outer loop
      vertex  2.000000e+000 -3.000000e+001  0.000000e+000
      vertex  2.000000e+001 -3.000000e+001  2.000000e+001
      vertex  2.000000e+001 -3.000000e+001  0.000000e+000
    endloop
  endfacet
  facet normal -1.000000e+000  0.000000e+000  0.000000e+000
    outer loop
      vertex  2.000000e+001  3.000000e+001  2.000000e+001
      vertex  2.000000e+001  3.000000e+001  0.000000e+000
      vertex  2.000000e+001 -3.000000e+001  2.000000e+001
    endloop
  endfacet
  facet normal -1.000000e+000  0.000000e+000  0.000000e+000
    outer loop
      vertex  2.000000e+001 -3.000000e+001  2.000000e+001
      vertex  2.000000e+001  3.000000e+001  0.000000e+000
      vertex  2.000000e+001 -3.000000e+001  0.000000e+000
    endloop
  endfacet
  facet normal  0.000000e+000 -1.000000e+000  0.000000e+000
    outer loop
      vertex  2.000000e+001  3.000000e+001  2.000000e+001
      vertex  0.000000e+000  3.000000e+001  2.000000e+001
      vertex  2.000000e+001  3.000000e+001  0.000000e+000
    endloop
  endfacet
  facet normal  0.000000e+000 -1.000000e+000  0.000000e+000
    outer loop
      vertex  2.000000e+001  3.000000e+001  0.000000e+000
      vertex  0.000000e+000  3.000000e+001  2.000000e+001
      vertex  0.000000e+000  3.000000e+001  0.000000e+000
    endloop
  endfacet
  facet normal  0.000000e+000 -1.000000e+000  0.000000e+000
    outer loop
      vertex  0.000000e+000  3.000000e+001  2.000000e+001
      vertex -2.000000e+001  3.000000e+001  2.000000e+001
      vertex  0.000000e+000  3.000000e+001  0.000000e+000
    endloop
  endfacet
  facet normal  0.000000e+000 -1.000000e+000  0.000000e+000
    outer loop
      vertex  0.000000e+000  3.000000e+001  0.000000e+000
      vertex -2.000000e+001  3.000000e+001  2.000000e+001
      vertex -2.000000e+001  3.000000e+001  0.000000e+000
    endloop
  endfacet
  facet normal  1.000000e+000  -0.000000e+000  0.000000e+000
    outer loop
      vertex -2.000000e+001  3.000000e+001  2.000000e+001
      vertex -2.000000e+001 -3.000000e+001  2.000000e+001
      vertex -2.000000e+001  3.000000e+001  0.000000e+000
    endloop
  endfacet
  facet normal  1.000000e+000  0.000000e+000  0.000000e+000
    outer loop
      vertex -2.000000e+001  3.000000e+001  0.000000e+000
      vertex -2.000000e+001 -3.000000e+001  2.000000e+001
      vertex -2.000000e+001 -3.000000e+001  0.000000e+000
    endloop
  endfacet
  facet normal  0.000000e+000  1.000000e+000  0.000000e+000
    outer loop
      vertex -2.000000e+001 -3.000000e+001  2.000000e+001
      vertex -2.000000e+000 -3.000000e+001  2.000000e+001
      vertex -2.000000e+001 -3.000000e+001  0.000000e+000
    endloop
  endfacet
  facet normal  0.000000e+000  1.000000e+000  0.000000e+000
    outer loop
      vertex -2.000000e+001 -3.000000e+001  0.000000e+000
      vertex -2.000000e+000 -3.000000e+001  2.000000e+001
      vertex -2.000000e+000 -3.000000e+001  0.000000e+000
    endloop
  endfacet
endsolid CATIA STL
